<svg xmlns="http://www.w3.org/2000/svg" role="img" viewBox="0 0 600 290"><title>receiptgate — Befehle belegen. Freigaben an den Git-Stand binden.</title><defs>
<linearGradient id="surface" x2=".8" y2="1"><stop stop-color="#242B36"/><stop offset=".45" stop-color="#1D232C"/><stop offset="1" stop-color="#171C24"/></linearGradient>
<linearGradient id="edge" x1="0" y1="0" x2=".8" y2="1"><stop stop-color="#E5EDFF" stop-opacity=".45"/><stop offset=".3" stop-color="#CBD8EE" stop-opacity=".14"/><stop offset=".7" stop-color="#8EAFD3" stop-opacity=".06"/><stop offset="1" stop-color="#D7E7FF" stop-opacity=".24"/></linearGradient>
<linearGradient id="glass" x2=".5" y2="1"><stop stop-color="#D9E3F6" stop-opacity=".2"/><stop offset=".5" stop-color="#AFBFD5" stop-opacity=".045"/><stop offset="1" stop-color="#B9CCEB" stop-opacity=".12"/></linearGradient>
<linearGradient id="icon" x2=".4" y2="1"><stop stop-color="#FCFCFF"/><stop offset="1" stop-color="#A8C5E8"/></linearGradient>
<radialGradient id="light" cx=".05" cy=".05" r="1"><stop stop-color="#CAD8F0" stop-opacity=".09"/><stop offset=".6" stop-color="#D8E8FC" stop-opacity="0"/></radialGradient>
<filter id="shadow" x="-50%" y="-50%" width="200%" height="220%"><feGaussianBlur stdDeviation="4"/></filter>
</defs>
<rect x="5" y="5" width="590" height="280" rx="32" fill="url(#surface)"/>
<rect x="5.75" y="5.75" width="588.5" height="278.5" rx="31.25" fill="url(#light)" stroke="url(#edge)" stroke-width="1.5"/>
<rect x="10" y="10" width="580" height="270" rx="28" fill="none" stroke="#FFFFFF" stroke-opacity=".025"/><ellipse cx="64" cy="84" rx="25" ry="5" fill="#000000" opacity=".25" filter="url(#shadow)"/>
<rect x="35" y="28" width="58" height="58" rx="19" fill="url(#glass)" stroke="url(#edge)" stroke-width="1.4"/>
<path d="M44 35Q49 31 56 31H73" stroke="#FFFFFF" stroke-opacity=".32" stroke-width="1" fill="none"/>
<g transform="translate(64 57)" fill="none" stroke="url(#icon)" stroke-width="2.3" stroke-linecap="round" stroke-linejoin="round"><path d="M-12 1L-3 10L14-10"/></g>
<g font-family="-apple-system,BlinkMacSystemFont,Helvetica Neue,Arial,sans-serif"><rect x="480" y="37" width="75" height="30" rx="15" fill="url(#glass)" stroke="url(#edge)"/><text x="517.5" y="57" text-anchor="middle" fill="#CCD6E4" font-size="15">Alpha</text><text x="35" y="145" fill="#F7F9FC" font-size="38" font-weight="600" letter-spacing="-1.3">receiptgate</text><text x="35" y="195" fill="#BBC5D4" font-size="22">Befehle belegen.</text><text x="35" y="229" fill="#BBC5D4" font-size="22">Freigaben an den Git-Stand binden.</text></g>
<circle cx="554" cy="231" r="15" fill="url(#glass)" stroke="url(#edge)" stroke-width=".75"/><path d="M549 236L559 226M550 226H559V235" fill="none" stroke="#CAD8ED" stroke-width="1.3" stroke-linecap="round" stroke-linejoin="round"/>
</svg>